<svg viewBox="0 0 300 54.6591" width="5000px" height="910.9849929809571px" xmlns="http://www.w3.org/2000/svg" xmlns:xlink="http://www.w3.org/1999/xlink" preserveAspectRatio="none"><defs></defs><style>.companyNameseIuk3XM8 {fill:#1e1e1e;fill-opacity:1;}.icon1seIuk3XM8 {fill:#EB3F3F;fill-opacity:1;}.shapeStroke-strseIuk3XM8 {stroke:#1e1e1e;stroke-opacity:1;}</style><g opacity="1" transform="rotate(0 0 22.0642)">
        <svg width="300" height="32.5949" x="0" y="22.0642" version="1.1" preserveAspectRatio="none" viewBox="2.28 -32.84 377.36 41">
          <g transform="matrix(1 0 0 1 0 0)" class="companyNameseIuk3XM8"><path d="M19.04 0L14.28-7.04L11.72-7.04L11.72 0L2.28 0L2.28-28L15.76-28Q19.64-28 22.52-26.72Q25.40-25.44 26.96-23.04Q28.52-20.64 28.52-17.44L28.52-17.44Q28.52-14.44 27.16-12.20Q25.80-9.96 23.24-8.64L23.24-8.64L29.12 0L19.04 0ZM19-17.44Q19-19 18.04-19.86Q17.08-20.72 15.16-20.72L15.16-20.72L11.72-20.72L11.72-14.16L15.16-14.16Q17.08-14.16 18.04-15.02Q19-15.88 19-17.44L19-17.44Z M55.08-10.96Q55.08-10.76 54.96-8.84L54.96-8.84L39.76-8.84Q40.24-7.60 41.36-6.94Q42.48-6.28 44.16-6.28L44.16-6.28Q45.60-6.28 46.58-6.64Q47.56-7 48.72-7.88L48.72-7.88L53.44-3.12Q50.24 0.40 43.88 0.40L43.88 0.40Q39.92 0.40 36.92-1.06Q33.92-2.52 32.28-5.12Q30.64-7.72 30.64-10.96L30.64-10.96Q30.64-14.24 32.26-16.82Q33.88-19.40 36.70-20.84Q39.52-22.28 43.04-22.28L43.04-22.28Q46.36-22.28 49.10-20.96Q51.84-19.64 53.46-17.08Q55.08-14.52 55.08-10.96L55.08-10.96ZM43.12-16.12Q41.72-16.12 40.80-15.36Q39.88-14.60 39.60-13.20L39.60-13.20L46.64-13.20Q46.36-14.56 45.44-15.34Q44.52-16.12 43.12-16.12L43.12-16.12Z M73.08-29.68L82.12-29.68L82.12 0L73.52 0L73.52-1.80Q71.56 0.40 67.52 0.40L67.52 0.40Q64.64 0.40 62.22-0.98Q59.80-2.36 58.38-4.96Q56.96-7.56 56.96-10.96L56.96-10.96Q56.96-14.36 58.38-16.94Q59.80-19.52 62.22-20.90Q64.64-22.28 67.52-22.28L67.52-22.28Q71.16-22.28 73.08-20.40L73.08-20.40L73.08-29.68ZM69.68-6.64Q71.24-6.64 72.24-7.78Q73.24-8.92 73.24-10.96L73.24-10.96Q73.24-13 72.24-14.12Q71.24-15.24 69.68-15.24L69.68-15.24Q68.12-15.24 67.12-14.12Q66.12-13 66.12-10.96L66.12-10.96Q66.12-8.92 67.12-7.78Q68.12-6.64 69.68-6.64L69.68-6.64Z M100.72-22.28Q103.60-22.28 106.02-20.90Q108.44-19.52 109.86-16.94Q111.28-14.36 111.28-10.96L111.28-10.96Q111.28-7.56 109.86-4.96Q108.44-2.36 106.02-0.98Q103.60 0.40 100.72 0.40L100.72 0.40Q96.68 0.40 94.72-1.80L94.72-1.80L94.72 0L86.12 0L86.12-29.68L95.16-29.68L95.16-20.40Q97.08-22.28 100.72-22.28L100.72-22.28ZM98.56-6.64Q100.12-6.64 101.12-7.78Q102.12-8.92 102.12-10.96L102.12-10.96Q102.12-13 101.12-14.12Q100.12-15.24 98.56-15.24L98.56-15.24Q97-15.24 96-14.12Q95-13 95-10.96L95-10.96Q95-8.92 96-7.78Q97-6.64 98.56-6.64L98.56-6.64Z M125.68 0.40Q122.04 0.40 119.14-1.06Q116.24-2.52 114.60-5.10Q112.96-7.68 112.96-10.96L112.96-10.96Q112.96-14.24 114.60-16.82Q116.24-19.40 119.14-20.84Q122.04-22.28 125.68-22.28L125.68-22.28Q129.36-22.28 132.26-20.84Q135.16-19.40 136.78-16.82Q138.40-14.24 138.40-10.96L138.40-10.96Q138.40-7.68 136.78-5.10Q135.16-2.52 132.26-1.06Q129.36 0.40 125.68 0.40L125.68 0.40ZM125.68-6.64Q127.24-6.64 128.24-7.78Q129.24-8.92 129.24-10.96L129.24-10.96Q129.24-13 128.24-14.12Q127.24-15.24 125.68-15.24L125.68-15.24Q124.12-15.24 123.12-14.12Q122.12-13 122.12-10.96L122.12-10.96Q122.12-8.92 123.12-7.78Q124.12-6.64 125.68-6.64L125.68-6.64Z M164.80 0L154.44 0L151.44-4.68L148.08 0L138.28 0L146.56-10.84L138.52-21.88L148.72-21.88L151.84-17.24L155.12-21.88L164.60-21.88L156.56-11.24L164.80 0Z M199.68 0L197.80-4.88L187.16-4.88L185.28 0L175.68 0L187.92-28L197.20-28L209.44 0L199.68 0ZM189.76-11.68L195.20-11.68L192.48-18.72L189.76-11.68Z M225.88-22.28Q229.92-22.28 232.38-19.84Q234.84-17.40 234.84-12.48L234.84-12.48L234.84 0L225.80 0L225.80-10.92Q225.80-14.68 223.12-14.68L223.12-14.68Q221.60-14.68 220.66-13.62Q219.72-12.56 219.72-10.28L219.72-10.28L219.72 0L210.68 0L210.68-21.88L219.28-21.88L219.28-19.72Q220.56-21 222.24-21.64Q223.92-22.28 225.88-22.28L225.88-22.28Z M248.56-22.28Q254.32-22.28 257.36-19.70Q260.40-17.12 260.40-11.76L260.40-11.76L260.40 0L252.00 0L252.00-2.88Q250.44 0.40 245.80 0.40L245.80 0.40Q243.20 0.40 241.38-0.50Q239.56-1.40 238.62-2.94Q237.68-4.48 237.68-6.40L237.68-6.40Q237.68-9.64 240.16-11.32Q242.64-13 247.68-13L247.68-13L251.32-13Q250.88-15.56 247.20-15.56L247.20-15.56Q245.72-15.56 244.20-15.10Q242.68-14.64 241.60-13.84L241.60-13.84L238.72-19.80Q240.60-20.96 243.26-21.62Q245.92-22.28 248.56-22.28L248.56-22.28ZM248.52-5.04Q249.48-5.04 250.24-5.56Q251.00-6.08 251.36-7.12L251.36-7.12L251.36-8.64L249.12-8.64Q246.36-8.64 246.36-6.80L246.36-6.80Q246.36-6.04 246.94-5.54Q247.52-5.04 248.52-5.04L248.52-5.04Z M264.32 0L264.32-29.68L273.36-29.68L273.36 0L264.32 0Z M293.16-21.88L301.72-21.88L292.72 0.44Q291.00 4.72 288.44 6.44Q285.88 8.16 282.16 8.16L282.16 8.16Q280.32 8.16 278.46 7.62Q276.60 7.08 275.52 6.20L275.52 6.20L278.52 0Q279.20 0.52 280.06 0.84Q280.92 1.16 281.72 1.16L281.72 1.16Q283.20 1.16 283.96 0.28L283.96 0.28L274.76-21.88L284.04-21.88L288.56-10.16L293.16-21.88Z M317.68-7.04L319.84-0.76Q317.80 0.40 314.28 0.40L314.28 0.40Q309.68 0.40 307.20-1.82Q304.72-4.04 304.72-8.48L304.72-8.48L304.72-14.08L301.72-14.08L301.72-20.68L304.72-20.68L304.72-26.80L313.76-26.80L313.76-20.68L318.24-20.68L318.24-14.08L313.76-14.08L313.76-8.56Q313.76-7.56 314.28-7Q314.80-6.44 315.64-6.44L315.64-6.44Q316.80-6.44 317.68-7.04L317.68-7.04Z M322.12 0L322.12-21.88L331.16-21.88L331.16 0L322.12 0ZM326.64-23.64Q324.20-23.64 322.70-24.94Q321.20-26.24 321.20-28.24L321.20-28.24Q321.20-30.24 322.70-31.54Q324.20-32.84 326.64-32.84L326.64-32.84Q329.12-32.84 330.60-31.60Q332.08-30.36 332.08-28.40L332.08-28.40Q332.08-26.32 330.60-24.98Q329.12-23.64 326.64-23.64L326.64-23.64Z M346.92 0.40Q343.20 0.40 340.26-1.04Q337.32-2.48 335.66-5.08Q334.00-7.68 334.00-10.96L334.00-10.96Q334.00-14.24 335.66-16.82Q337.32-19.40 340.26-20.84Q343.20-22.28 346.92-22.28L346.92-22.28Q350.92-22.28 353.76-20.56Q356.60-18.84 357.68-15.80L357.68-15.80L350.68-12.36Q349.40-15.24 346.88-15.24L346.88-15.24Q345.28-15.24 344.22-14.12Q343.16-13 343.16-10.96L343.16-10.96Q343.16-8.88 344.22-7.76Q345.28-6.64 346.88-6.64L346.88-6.64Q349.40-6.64 350.68-9.52L350.68-9.52L357.68-6.08Q356.60-3.04 353.76-1.32Q350.92 0.40 346.92 0.40L346.92 0.40Z M368.32 0.40Q365.52 0.40 362.80-0.20Q360.08-0.80 358.40-1.76L358.40-1.76L360.88-7.72Q362.40-6.80 364.48-6.28Q366.56-5.76 368.52-5.76L368.52-5.76Q370.08-5.76 370.70-6.02Q371.32-6.28 371.32-6.80L371.32-6.80Q371.32-7.32 370.54-7.52Q369.76-7.72 368.00-7.92L368.00-7.92Q365.32-8.24 363.44-8.74Q361.56-9.24 360.14-10.68Q358.72-12.12 358.72-14.80L358.72-14.80Q358.72-16.92 360.00-18.60Q361.28-20.28 363.82-21.28Q366.36-22.28 369.92-22.28L369.92-22.28Q372.40-22.28 374.78-21.82Q377.16-21.36 378.84-20.48L378.84-20.48L376.36-14.52Q373.48-16.12 370.04-16.12L370.04-16.12Q367.08-16.12 367.08-15.08L367.08-15.08Q367.08-14.56 367.88-14.34Q368.68-14.12 370.40-13.92L370.40-13.92Q373.08-13.60 374.94-13.08Q376.80-12.56 378.22-11.12Q379.64-9.68 379.64-7L379.64-7Q379.64-4.96 378.36-3.28Q377.08-1.60 374.52-0.60Q371.96 0.40 368.32 0.40L368.32 0.40Z"></path></g>
        </svg>
      </g><g opacity="1" transform="rotate(0 0 0)">
        <svg width="65.1899" height="9.0262" x="0" y="0" version="1.1" preserveAspectRatio="none" viewBox="0 0 65.1899 9.0262">
          <rect x="0" y="0" width="65.1899" height="9.0262" class="icon1seIuk3XM8 shapeStroke-strseIuk3XM8" style="stroke-width:0;" rx="0%" ry="0%"></rect>
        </svg>
      </g></svg>